<svg xmlns="http://www.w3.org/2000/svg" viewBox="0 0 1000 540" width="1000" height="540" font-family="'SFMono-Regular',ui-monospace,'DejaVu Sans Mono',Consolas,'Liberation Mono',Menlo,monospace">
<defs>
  <clipPath id="artClip"><rect x="60" y="141.28" width="268" height="289.44"/></clipPath>
  <linearGradient id="beamGrad" x1="0" y1="0" x2="0" y2="1">
    <stop offset="0" stop-color="#9fe6ff" stop-opacity="0"/>
    <stop offset="0.5" stop-color="#9fe6ff" stop-opacity="0.9"/>
    <stop offset="1" stop-color="#9fe6ff" stop-opacity="0"/>
  </linearGradient>
  <style>
    @keyframes sweep { 0% { transform: translateY(-46px); } 100% { transform: translateY(335.44px); } }
    @keyframes flick { 0%,100%{opacity:.92} 96%{opacity:.92} 97%{opacity:.6} 98%{opacity:.95} }
    .beam { animation: sweep 3.2s linear infinite; }
    .scr { animation: flick 5s ease-in-out infinite; }
    @media (prefers-reduced-motion: reduce){ .beam{animation:none; opacity:0.5;} .scr{animation:none;} }
  </style>
</defs>

<rect width="1000" height="540" fill="#0a0e14"/>
<rect x="16" y="16" width="968" height="508" rx="10" fill="#0d1420" stroke="#1c2b3a" stroke-width="1.5"/>

<!-- title bar -->
<rect x="16" y="16" width="968" height="34" rx="10" fill="#0b1119"/>
<rect x="16" y="38" width="968" height="12" fill="#0d1420"/>
<line x1="16" y1="50" x2="984" y2="50" stroke="#1c2b3a" stroke-width="1"/>
<circle cx="36" cy="33" r="5" fill="#ff5f56"/>
<circle cx="54" cy="33" r="5" fill="#ffbd2e"/>
<circle cx="72" cy="33" r="5" fill="#27c93f"/>
<text x="500" y="37" text-anchor="middle" fill="#5b7590" font-size="12" letter-spacing="1">rizki@build - % ./profile</text>

<!-- portrait panel -->
<rect x="34" y="66" width="320" height="428" rx="6" fill="none" stroke="#1f3346" stroke-width="1"/>
<text x="44" y="62" fill="#3f6d8f" font-size="11" letter-spacing="2">PORTRAIT / RIZKI</text>

    <path d="M48 145.28 V129.28 H64" stroke="#3f6d8f" stroke-width="1.5" fill="none"/>
    <path d="M324 129.28 H340 V145.28" stroke="#3f6d8f" stroke-width="1.5" fill="none"/>
    <path d="M340 426.72 V442.72 H324" stroke="#3f6d8f" stroke-width="1.5" fill="none"/>
    <path d="M64 442.72 H48 V426.72" stroke="#3f6d8f" stroke-width="1.5" fill="none"/>

<g class="scr" clip-path="url(#artClip)">
  <g transform="translate(60,141.28) scale(0.8933333333333333)">
    <line x1="138.0" y1="0" x2="144.0" y2="0" stroke="#1e5f86" stroke-width="1.20" opacity="0.41" stroke-dasharray="5 3"/><line x1="132.0" y1="3" x2="147.0" y2="3" stroke="#bde8ff" stroke-width="1.79" opacity="0.73" stroke-dasharray="5 3"/><line x1="150.0" y1="3" x2="153.0" y2="3" stroke="#1e5f86" stroke-width="1.21" opacity="0.41" stroke-dasharray="5 3"/><line x1="159.0" y1="3" x2="165.0" y2="3" stroke="#1e5f86" stroke-width="1.39" opacity="0.51" stroke-dasharray="5 3"/><line x1="129.0" y1="6" x2="174.0" y2="6" stroke="#bde8ff" stroke-width="1.89" opacity="0.78" stroke-dasharray="5 3"/><line x1="126.0" y1="9" x2="174.0" y2="9" stroke="#bde8ff" stroke-width="1.93" opacity="0.80" stroke-dasharray="5 3"/><line x1="123.0" y1="12" x2="183.0" y2="12" stroke="#bde8ff" stroke-width="1.97" opacity="0.82" stroke-dasharray="5 3"/><line x1="114.0" y1="15" x2="186.0" y2="15" stroke="#bde8ff" stroke-width="1.96" opacity="0.82" stroke-dasharray="5 3"/><line x1="114.0" y1="18" x2="189.0" y2="18" stroke="#bde8ff" stroke-width="2.03" opacity="0.85" stroke-dasharray="5 3"/><line x1="108.0" y1="21" x2="192.0" y2="21" stroke="#bde8ff" stroke-width="2.02" opacity="0.85" stroke-dasharray="5 3"/><line x1="105.0" y1="24" x2="195.0" y2="24" stroke="#bde8ff" stroke-width="2.03" opacity="0.86" stroke-dasharray="5 3"/><line x1="102.0" y1="27" x2="192.0" y2="27" stroke="#bde8ff" stroke-width="2.09" opacity="0.89" stroke-dasharray="5 3"/><line x1="195.0" y1="27" x2="198.0" y2="27" stroke="#38bdf8" stroke-width="1.76" opacity="0.71" stroke-dasharray="5 3"/><line x1="105.0" y1="30" x2="198.0" y2="30" stroke="#bde8ff" stroke-width="2.13" opacity="0.91" stroke-dasharray="5 3"/><line x1="99.0" y1="33" x2="201.0" y2="33" stroke="#bde8ff" stroke-width="2.12" opacity="0.90" stroke-dasharray="5 3"/><line x1="96.0" y1="36" x2="99.0" y2="36" stroke="#1e5f86" stroke-width="1.34" opacity="0.48" stroke-dasharray="5 3"/><line x1="102.0" y1="36" x2="204.0" y2="36" stroke="#bde8ff" stroke-width="2.13" opacity="0.91" stroke-dasharray="5 3"/><line x1="99.0" y1="39" x2="204.0" y2="39" stroke="#bde8ff" stroke-width="2.12" opacity="0.90" stroke-dasharray="5 3"/><line x1="96.0" y1="42" x2="207.0" y2="42" stroke="#bde8ff" stroke-width="2.13" opacity="0.91" stroke-dasharray="5 3"/><line x1="93.0" y1="45" x2="210.0" y2="45" stroke="#bde8ff" stroke-width="2.12" opacity="0.90" stroke-dasharray="5 3"/><line x1="93.0" y1="48" x2="210.0" y2="48" stroke="#bde8ff" stroke-width="1.95" opacity="0.81" stroke-dasharray="5 3"/><line x1="93.0" y1="51" x2="213.0" y2="51" stroke="#bde8ff" stroke-width="1.85" opacity="0.76" stroke-dasharray="5 3"/><line x1="96.0" y1="54" x2="216.0" y2="54" stroke="#38bdf8" stroke-width="1.76" opacity="0.71" stroke-dasharray="5 3"/><line x1="93.0" y1="57" x2="213.0" y2="57" stroke="#38bdf8" stroke-width="1.76" opacity="0.71" stroke-dasharray="5 3"/><line x1="90.0" y1="60" x2="213.0" y2="60" stroke="#38bdf8" stroke-width="1.73" opacity="0.70" stroke-dasharray="5 3"/><line x1="90.0" y1="63" x2="213.0" y2="63" stroke="#38bdf8" stroke-width="1.69" opacity="0.67" stroke-dasharray="5 3"/><line x1="90.0" y1="66" x2="213.0" y2="66" stroke="#38bdf8" stroke-width="1.65" opacity="0.65" stroke-dasharray="5 3"/><line x1="90.0" y1="69" x2="210.0" y2="69" stroke="#38bdf8" stroke-width="1.59" opacity="0.62" stroke-dasharray="5 3"/><line x1="90.0" y1="72" x2="210.0" y2="72" stroke="#38bdf8" stroke-width="1.57" opacity="0.61" stroke-dasharray="5 3"/><line x1="93.0" y1="75" x2="210.0" y2="75" stroke="#38bdf8" stroke-width="1.58" opacity="0.62" stroke-dasharray="5 3"/><line x1="93.0" y1="78" x2="210.0" y2="78" stroke="#bde8ff" stroke-width="1.82" opacity="0.74" stroke-dasharray="5 3"/><line x1="93.0" y1="81" x2="207.0" y2="81" stroke="#bde8ff" stroke-width="1.87" opacity="0.77" stroke-dasharray="5 3"/><line x1="96.0" y1="84" x2="207.0" y2="84" stroke="#38bdf8" stroke-width="1.76" opacity="0.71" stroke-dasharray="5 3"/><line x1="96.0" y1="87" x2="207.0" y2="87" stroke="#38bdf8" stroke-width="1.65" opacity="0.65" stroke-dasharray="5 3"/><line x1="99.0" y1="90" x2="204.0" y2="90" stroke="#38bdf8" stroke-width="1.58" opacity="0.62" stroke-dasharray="5 3"/><line x1="99.0" y1="93" x2="204.0" y2="93" stroke="#38bdf8" stroke-width="1.70" opacity="0.68" stroke-dasharray="5 3"/><line x1="99.0" y1="96" x2="207.0" y2="96" stroke="#38bdf8" stroke-width="1.73" opacity="0.70" stroke-dasharray="5 3"/><line x1="99.0" y1="99" x2="210.0" y2="99" stroke="#38bdf8" stroke-width="1.54" opacity="0.59" stroke-dasharray="5 3"/><line x1="96.0" y1="102" x2="210.0" y2="102" stroke="#38bdf8" stroke-width="1.49" opacity="0.56" stroke-dasharray="5 3"/><line x1="96.0" y1="105" x2="210.0" y2="105" stroke="#1e5f86" stroke-width="1.40" opacity="0.52" stroke-dasharray="5 3"/><line x1="96.0" y1="108" x2="210.0" y2="108" stroke="#1e5f86" stroke-width="1.36" opacity="0.49" stroke-dasharray="5 3"/><line x1="96.0" y1="111" x2="210.0" y2="111" stroke="#1e5f86" stroke-width="1.35" opacity="0.49" stroke-dasharray="5 3"/><line x1="96.0" y1="114" x2="210.0" y2="114" stroke="#1e5f86" stroke-width="1.37" opacity="0.50" stroke-dasharray="5 3"/><line x1="96.0" y1="117" x2="210.0" y2="117" stroke="#1e5f86" stroke-width="1.41" opacity="0.52" stroke-dasharray="5 3"/><line x1="96.0" y1="120" x2="210.0" y2="120" stroke="#38bdf8" stroke-width="1.50" opacity="0.57" stroke-dasharray="5 3"/><line x1="99.0" y1="123" x2="207.0" y2="123" stroke="#38bdf8" stroke-width="1.47" opacity="0.56" stroke-dasharray="5 3"/><line x1="99.0" y1="126" x2="207.0" y2="126" stroke="#1e5f86" stroke-width="1.39" opacity="0.51" stroke-dasharray="5 3"/><line x1="99.0" y1="129" x2="204.0" y2="129" stroke="#1e5f86" stroke-width="1.37" opacity="0.50" stroke-dasharray="5 3"/><line x1="102.0" y1="132" x2="108.0" y2="132" stroke="#38bdf8" stroke-width="1.63" opacity="0.64" stroke-dasharray="5 3"/><line x1="111.0" y1="132" x2="198.0" y2="132" stroke="#1e5f86" stroke-width="1.37" opacity="0.50" stroke-dasharray="5 3"/><line x1="111.0" y1="135" x2="195.0" y2="135" stroke="#38bdf8" stroke-width="1.55" opacity="0.60" stroke-dasharray="5 3"/><line x1="111.0" y1="138" x2="195.0" y2="138" stroke="#38bdf8" stroke-width="1.71" opacity="0.68" stroke-dasharray="5 3"/><line x1="114.0" y1="141" x2="195.0" y2="141" stroke="#38bdf8" stroke-width="1.49" opacity="0.56" stroke-dasharray="5 3"/><line x1="114.0" y1="144" x2="192.0" y2="144" stroke="#1e5f86" stroke-width="1.46" opacity="0.55" stroke-dasharray="5 3"/><line x1="114.0" y1="147" x2="192.0" y2="147" stroke="#38bdf8" stroke-width="1.51" opacity="0.58" stroke-dasharray="5 3"/><line x1="117.0" y1="150" x2="192.0" y2="150" stroke="#38bdf8" stroke-width="1.51" opacity="0.58" stroke-dasharray="5 3"/><line x1="120.0" y1="153" x2="189.0" y2="153" stroke="#38bdf8" stroke-width="1.49" opacity="0.57" stroke-dasharray="5 3"/><line x1="120.0" y1="156" x2="189.0" y2="156" stroke="#1e5f86" stroke-width="1.39" opacity="0.51" stroke-dasharray="5 3"/><line x1="120.0" y1="159" x2="189.0" y2="159" stroke="#1e5f86" stroke-width="1.43" opacity="0.53" stroke-dasharray="5 3"/><line x1="120.0" y1="162" x2="189.0" y2="162" stroke="#38bdf8" stroke-width="1.48" opacity="0.56" stroke-dasharray="5 3"/><line x1="120.0" y1="165" x2="189.0" y2="165" stroke="#38bdf8" stroke-width="1.58" opacity="0.62" stroke-dasharray="5 3"/><line x1="120.0" y1="168" x2="189.0" y2="168" stroke="#38bdf8" stroke-width="1.66" opacity="0.65" stroke-dasharray="5 3"/><line x1="120.0" y1="171" x2="192.0" y2="171" stroke="#38bdf8" stroke-width="1.70" opacity="0.68" stroke-dasharray="5 3"/><line x1="117.0" y1="174" x2="192.0" y2="174" stroke="#38bdf8" stroke-width="1.67" opacity="0.66" stroke-dasharray="5 3"/><line x1="114.0" y1="177" x2="195.0" y2="177" stroke="#38bdf8" stroke-width="1.63" opacity="0.64" stroke-dasharray="5 3"/><line x1="111.0" y1="180" x2="198.0" y2="180" stroke="#38bdf8" stroke-width="1.60" opacity="0.62" stroke-dasharray="5 3"/><line x1="111.0" y1="183" x2="201.0" y2="183" stroke="#38bdf8" stroke-width="1.61" opacity="0.63" stroke-dasharray="5 3"/><line x1="108.0" y1="186" x2="201.0" y2="186" stroke="#38bdf8" stroke-width="1.65" opacity="0.65" stroke-dasharray="5 3"/><line x1="105.0" y1="189" x2="204.0" y2="189" stroke="#38bdf8" stroke-width="1.65" opacity="0.65" stroke-dasharray="5 3"/><line x1="102.0" y1="192" x2="207.0" y2="192" stroke="#38bdf8" stroke-width="1.66" opacity="0.66" stroke-dasharray="5 3"/><line x1="99.0" y1="195" x2="210.0" y2="195" stroke="#38bdf8" stroke-width="1.68" opacity="0.67" stroke-dasharray="5 3"/><line x1="87.0" y1="198" x2="213.0" y2="198" stroke="#38bdf8" stroke-width="1.70" opacity="0.68" stroke-dasharray="5 3"/><line x1="81.0" y1="201" x2="225.0" y2="201" stroke="#38bdf8" stroke-width="1.73" opacity="0.69" stroke-dasharray="5 3"/><line x1="72.0" y1="204" x2="231.0" y2="204" stroke="#38bdf8" stroke-width="1.75" opacity="0.70" stroke-dasharray="5 3"/><line x1="60.0" y1="207" x2="237.0" y2="207" stroke="#38bdf8" stroke-width="1.76" opacity="0.71" stroke-dasharray="5 3"/><line x1="48.0" y1="210" x2="246.0" y2="210" stroke="#38bdf8" stroke-width="1.75" opacity="0.71" stroke-dasharray="5 3"/><line x1="39.0" y1="213" x2="255.0" y2="213" stroke="#bde8ff" stroke-width="1.79" opacity="0.73" stroke-dasharray="5 3"/><line x1="33.0" y1="216" x2="264.0" y2="216" stroke="#bde8ff" stroke-width="1.81" opacity="0.74" stroke-dasharray="5 3"/><line x1="30.0" y1="219" x2="270.0" y2="219" stroke="#bde8ff" stroke-width="1.83" opacity="0.75" stroke-dasharray="5 3"/><line x1="24.0" y1="222" x2="276.0" y2="222" stroke="#bde8ff" stroke-width="1.82" opacity="0.74" stroke-dasharray="5 3"/><line x1="24.0" y1="225" x2="279.0" y2="225" stroke="#bde8ff" stroke-width="1.84" opacity="0.75" stroke-dasharray="5 3"/><line x1="24.0" y1="228" x2="282.0" y2="228" stroke="#bde8ff" stroke-width="1.85" opacity="0.76" stroke-dasharray="5 3"/><line x1="21.0" y1="231" x2="285.0" y2="231" stroke="#bde8ff" stroke-width="1.83" opacity="0.75" stroke-dasharray="5 3"/><line x1="21.0" y1="234" x2="288.0" y2="234" stroke="#bde8ff" stroke-width="1.82" opacity="0.74" stroke-dasharray="5 3"/><line x1="21.0" y1="237" x2="288.0" y2="237" stroke="#bde8ff" stroke-width="1.79" opacity="0.73" stroke-dasharray="5 3"/><line x1="21.0" y1="240" x2="288.0" y2="240" stroke="#bde8ff" stroke-width="1.77" opacity="0.72" stroke-dasharray="5 3"/><line x1="18.0" y1="243" x2="288.0" y2="243" stroke="#38bdf8" stroke-width="1.77" opacity="0.71" stroke-dasharray="5 3"/><line x1="18.0" y1="246" x2="291.0" y2="246" stroke="#38bdf8" stroke-width="1.76" opacity="0.71" stroke-dasharray="5 3"/><line x1="18.0" y1="249" x2="291.0" y2="249" stroke="#bde8ff" stroke-width="1.77" opacity="0.72" stroke-dasharray="5 3"/><line x1="15.0" y1="252" x2="291.0" y2="252" stroke="#38bdf8" stroke-width="1.77" opacity="0.71" stroke-dasharray="5 3"/><line x1="15.0" y1="255" x2="291.0" y2="255" stroke="#bde8ff" stroke-width="1.77" opacity="0.72" stroke-dasharray="5 3"/><line x1="15.0" y1="258" x2="291.0" y2="258" stroke="#bde8ff" stroke-width="1.77" opacity="0.72" stroke-dasharray="5 3"/><line x1="15.0" y1="261" x2="294.0" y2="261" stroke="#38bdf8" stroke-width="1.76" opacity="0.71" stroke-dasharray="5 3"/><line x1="12.0" y1="264" x2="294.0" y2="264" stroke="#38bdf8" stroke-width="1.76" opacity="0.71" stroke-dasharray="5 3"/><line x1="12.0" y1="267" x2="294.0" y2="267" stroke="#bde8ff" stroke-width="1.77" opacity="0.72" stroke-dasharray="5 3"/><line x1="12.0" y1="270" x2="294.0" y2="270" stroke="#bde8ff" stroke-width="1.77" opacity="0.72" stroke-dasharray="5 3"/><line x1="12.0" y1="273" x2="297.0" y2="273" stroke="#38bdf8" stroke-width="1.76" opacity="0.71" stroke-dasharray="5 3"/><line x1="9.0" y1="276" x2="297.0" y2="276" stroke="#bde8ff" stroke-width="1.77" opacity="0.72" stroke-dasharray="5 3"/><line x1="9.0" y1="279" x2="297.0" y2="279" stroke="#bde8ff" stroke-width="1.78" opacity="0.72" stroke-dasharray="5 3"/><line x1="9.0" y1="282" x2="297.0" y2="282" stroke="#bde8ff" stroke-width="1.78" opacity="0.72" stroke-dasharray="5 3"/><line x1="9.0" y1="285" x2="297.0" y2="285" stroke="#bde8ff" stroke-width="1.78" opacity="0.72" stroke-dasharray="5 3"/><line x1="9.0" y1="288" x2="297.0" y2="288" stroke="#bde8ff" stroke-width="1.78" opacity="0.72" stroke-dasharray="5 3"/><line x1="6.0" y1="291" x2="300.0" y2="291" stroke="#bde8ff" stroke-width="1.78" opacity="0.72" stroke-dasharray="5 3"/><line x1="6.0" y1="294" x2="300.0" y2="294" stroke="#bde8ff" stroke-width="1.77" opacity="0.72" stroke-dasharray="5 3"/><line x1="6.0" y1="297" x2="300.0" y2="297" stroke="#bde8ff" stroke-width="1.78" opacity="0.72" stroke-dasharray="5 3"/><line x1="6.0" y1="300" x2="300.0" y2="300" stroke="#bde8ff" stroke-width="1.78" opacity="0.72" stroke-dasharray="5 3"/><line x1="6.0" y1="303" x2="300.0" y2="303" stroke="#bde8ff" stroke-width="1.78" opacity="0.72" stroke-dasharray="5 3"/><line x1="6.0" y1="306" x2="300.0" y2="306" stroke="#bde8ff" stroke-width="1.79" opacity="0.73" stroke-dasharray="5 3"/><line x1="3.0" y1="309" x2="300.0" y2="309" stroke="#bde8ff" stroke-width="1.80" opacity="0.73" stroke-dasharray="5 3"/><line x1="3.0" y1="312" x2="300.0" y2="312" stroke="#bde8ff" stroke-width="1.81" opacity="0.74" stroke-dasharray="5 3"/><line x1="3.0" y1="315" x2="300.0" y2="315" stroke="#bde8ff" stroke-width="1.82" opacity="0.74" stroke-dasharray="5 3"/><line x1="3.0" y1="318" x2="300.0" y2="318" stroke="#bde8ff" stroke-width="1.82" opacity="0.74" stroke-dasharray="5 3"/><line x1="0.0" y1="321" x2="300.0" y2="321" stroke="#bde8ff" stroke-width="1.81" opacity="0.74" stroke-dasharray="5 3"/>
  </g>
  <!-- sweeping scanner beam -->
  <g class="beam">
    <rect x="60" y="141.28" width="268" height="46" fill="url(#beamGrad)"/>
    <line x1="60" y1="164.28" x2="328" y2="164.28" stroke="#9fe6ff" stroke-width="1.5" opacity="0.9"/>
  </g>
</g>

<!-- text panel -->
<text x="388" y="78" fill="#3f6d8f" font-size="12" letter-spacing="1.5">PROFILE / BUILDER</text><text x="388" y="102" fill="#7fd3ff" font-size="13">rizki@build</text><text x="388" y="124" fill="#3f6d8f" font-size="12" letter-spacing="1.5">- INFO ------------------------------</text><text x="388" y="146" font-size="13"><tspan fill="#5fb3d4">Name:</tspan> <tspan fill="#243a4d">........</tspan> <tspan fill="#c7d5e0">Rizki Triamadewa</tspan></text><text x="388" y="168" font-size="13"><tspan fill="#5fb3d4">Role:</tspan> <tspan fill="#243a4d">........</tspan> <tspan fill="#c7d5e0">IoT &amp; Systems Engineer</tspan></text><text x="388" y="190" font-size="13"><tspan fill="#5fb3d4">Based:</tspan> <tspan fill="#243a4d">.......</tspan> <tspan fill="#c7d5e0">Indonesia</tspan></text><text x="388" y="212" font-size="13"><tspan fill="#5fb3d4">Mode:</tspan> <tspan fill="#243a4d">........</tspan> <tspan fill="#c7d5e0">Design / Build / Secure</tspan></text><text x="388" y="246" fill="#3f6d8f" font-size="12" letter-spacing="1.5">- BUILD.FOCUS -----------------------</text><text x="388" y="268" font-size="13"><tspan fill="#5fb3d4">Systems:</tspan> <tspan fill="#243a4d">.....</tspan> <tspan fill="#c7d5e0">IoT &amp; embedded</tspan></text><text x="388" y="290" font-size="13"><tspan fill="#5fb3d4">Security:</tspan> <tspan fill="#243a4d">....</tspan> <tspan fill="#c7d5e0">Vuln research / ethical hacking</tspan></text><text x="388" y="312" font-size="13"><tspan fill="#5fb3d4">Fullstack:</tspan> <tspan fill="#243a4d">...</tspan> <tspan fill="#c7d5e0">Web &amp; mobile apps</tspan></text><text x="388" y="334" font-size="13"><tspan fill="#5fb3d4">Quality:</tspan> <tspan fill="#243a4d">.....</tspan> <tspan fill="#c7d5e0">Robotics &amp; simulation</tspan></text><text x="388" y="368" fill="#3f6d8f" font-size="12" letter-spacing="1.5">- SELECTED.WORK ---------------------</text><text x="388" y="390" font-size="13"><tspan fill="#5fb3d4">Focus:</tspan> <tspan fill="#243a4d">.......</tspan> <tspan fill="#c7d5e0">Hardware + software integration</tspan></text><text x="388" y="412" font-size="13"><tspan fill="#5fb3d4">Sec:</tspan> <tspan fill="#243a4d">.........</tspan> <tspan fill="#c7d5e0">Responsible disclosure</tspan></text><text x="388" y="434" font-size="13"><tspan fill="#5fb3d4">Sim:</tspan> <tspan fill="#243a4d">.........</tspan> <tspan fill="#c7d5e0">Unity VR / AR</tspan></text><text x="388" y="456" font-size="13"><tspan fill="#5fb3d4">Robotics:</tspan> <tspan fill="#243a4d">....</tspan> <tspan fill="#c7d5e0">Line followers / conveyors</tspan></text><text x="388" y="494" fill="#c7d5e0" font-size="13" letter-spacing="1">FROM IDEA TO WORKING PRODUCT</text>

<!-- footer -->
<line x1="34" y1="498" x2="966" y2="498" stroke="#1c2b3a" stroke-width="1"/>
<text x="500" y="513" text-anchor="middle" fill="#2f5a74" font-size="10" letter-spacing="2">IoT.SYSTEMS / AI SECURITY / WEB / FULLSTACK</text>
</svg>